<?xml version="1.0" encoding="utf-8"?>
<!-- Generator: Adobe Illustrator 16.0.0, SVG Export Plug-In . SVG Version: 6.00 Build 0)  -->
<!DOCTYPE svg PUBLIC "-//W3C//DTD SVG 1.1//EN" "http://www.w3.org/Graphics/SVG/1.1/DTD/svg11.dtd">
<svg version="1.1" id="Layer_1" xmlns="http://www.w3.org/2000/svg" xmlns:xlink="http://www.w3.org/1999/xlink" x="0px" y="0px"
	 width="100px" height="100px" viewBox="0 0 100 100" enable-background="new 0 0 100 100" xml:space="preserve">
<g>
	<g>
		<path fill="green" d="M81,70c0,1.104-0.896,2-2,2H17c-1.104,0-2-0.896-2-2V27c0-1.104,0.896-2,2-2h62c1.104,0,2,0.896,2,2V70z
			 M16.356,37.508L81,37.5"/>
		<path fill="none" stroke="#000000" stroke-width="4" stroke-miterlimit="10" d="M81,70c0,1.104-0.896,2-2,2H17
			c-1.104,0-2-0.896-2-2V27c0-1.104,0.896-2,2-2h62c1.104,0,2,0.896,2,2V70z M16.356,37.508L81,37.5"/>
	</g>
	<ellipse fill="green" cx="23.644" cy="31.152" rx="1.695" ry="1.78"/>
	<ellipse fill="green" cx="28.644" cy="31.152" rx="1.695" ry="1.78"/>
	<ellipse fill="green" cx="33.644" cy="31.152" rx="1.695" ry="1.78"/>
</g>
</svg>
