<?xml version="1.0" encoding="utf-8"?>
<!-- Generator: Adobe Illustrator 16.0.0, SVG Export Plug-In . SVG Version: 6.00 Build 0)  -->
<!DOCTYPE svg PUBLIC "-//W3C//DTD SVG 1.1//EN" "http://www.w3.org/Graphics/SVG/1.1/DTD/svg11.dtd">
<svg version="1.1" id="Layer_1" xmlns="http://www.w3.org/2000/svg" xmlns:xlink="http://www.w3.org/1999/xlink" x="0px" y="0px"
	 width="100px" height="100px" viewBox="0 0 100 100" enable-background="new 0 0 100 100" xml:space="preserve">
<g>
	<path fill="none" stroke="#F7931E" stroke-width="6" stroke-miterlimit="10" d="M73,67.743C73,73.96,67.602,79,61.424,79H37.187
		C31.008,79,26,73.96,26,67.743V30.221C26,24.004,31.008,19,37.187,19h24.237C67.602,19,73,24.004,73,30.221V67.743z"/>
	<path fill="none" stroke="#F7931E" stroke-width="6" stroke-miterlimit="10" d="M53,41.695C53,43.52,51.52,45,49.695,45h-0.39
		C47.48,45,46,43.52,46,41.695v-8.39C46,31.48,47.48,30,49.305,30h0.39C51.52,30,53,31.48,53,33.305V41.695z"/>
</g>
</svg>
